<svg xmlns="http://www.w3.org/2000/svg" viewBox="0 0 32 32" width="32" height="32">
  <defs>
    <linearGradient id="redGradient" x1="0%" y1="0%" x2="100%" y2="100%">
      <stop offset="0%" style="stop-color:#e50914;stop-opacity:1" />
      <stop offset="100%" style="stop-color:#ff6b6b;stop-opacity:1" />
    </linearGradient>
    <filter id="glow" x="-50%" y="-50%" width="200%" height="200%">
      <feGaussianBlur stdDeviation="2" result="coloredBlur"/>
      <feMerge> 
        <feMergeNode in="coloredBlur"/>
        <feMergeNode in="SourceGraphic"/>
      </feMerge>
    </filter>
  </defs>
  
  <!-- Background circle -->
  <circle cx="16" cy="16" r="15" fill="#000000" stroke="#e50914" stroke-width="1"/>
  
  <!-- Film reel outer ring -->
  <circle cx="16" cy="16" r="12" fill="none" stroke="url(#redGradient)" stroke-width="2" filter="url(#glow)"/>
  
  <!-- Film reel holes -->
  <circle cx="16" cy="8" r="1.5" fill="#e50914"/>
  <circle cx="16" cy="24" r="1.5" fill="#e50914"/>
  <circle cx="8" cy="16" r="1.5" fill="#e50914"/>
  <circle cx="24" cy="16" r="1.5" fill="#e50914"/>
  
  <!-- Center hub -->
  <circle cx="16" cy="16" r="4" fill="none" stroke="#e50914" stroke-width="1.5"/>
  
  <!-- Center dot -->
  <circle cx="16" cy="16" r="1" fill="#e50914"/>
  
  <!-- Film strip edges -->
  <rect x="2" y="14" width="3" height="4" fill="#e50914" rx="0.5"/>
  <rect x="27" y="14" width="3" height="4" fill="#e50914" rx="0.5"/>
  
  <!-- Small perforations on film strip -->
  <rect x="1" y="13" width="1" height="1" fill="#e50914" rx="0.2"/>
  <rect x="1" y="17" width="1" height="1" fill="#e50914" rx="0.2"/>
  <rect x="30" y="13" width="1" height="1" fill="#e50914" rx="0.2"/>
  <rect x="30" y="17" width="1" height="1" fill="#e50914" rx="0.2"/>
</svg>
